<?xml version="1.0" standalone="no"?>
<!DOCTYPE svg PUBLIC "-//W3C//DTD SVG 20010904//EN"
 "http://www.w3.org/TR/2001/REC-SVG-20010904/DTD/svg10.dtd">
<svg version="1.0" xmlns="http://www.w3.org/2000/svg"
 width="1265.000000pt" height="828.000000pt" viewBox="0 0 1265.000000 828.000000"
 preserveAspectRatio="xMidYMid meet">
<metadata>
Created by potrace 1.11, written by Peter Selinger 2001-2013
</metadata>
<g transform="translate(0.000000,828.000000) scale(0.100000,-0.100000)"
fill="#000000" stroke="none">
<path d="M10635 7876 l-51 -34 -169 -4 c-150 -4 -180 -8 -252 -32 -145 -47
-254 -142 -283 -244 -15 -54 -12 -129 5 -163 20 -37 70 -69 110 -69 77 0 207
100 341 260 55 66 187 188 238 219 16 9 35 12 61 7 l38 -8 -43 -24 c-69 -40
-166 -121 -221 -187 -29 -34 -122 -168 -207 -297 -225 -342 -240 -365 -308
-443 -62 -72 -150 -142 -211 -166 -46 -19 -146 -10 -180 15 -57 43 -68 68 -68
162 0 79 3 94 34 157 70 142 230 264 362 273 54 4 60 2 89 -26 17 -17 30 -41
30 -55 0 -79 -81 -229 -174 -323 -133 -133 -246 -141 -246 -17 0 74 37 151
104 219 34 33 76 67 94 75 33 14 42 29 18 29 -21 0 -127 -83 -160 -126 -74
-94 -99 -232 -51 -279 91 -92 362 94 420 288 19 65 19 140 0 177 -46 88 -215
77 -367 -23 -70 -47 -119 -101 -154 -169 -50 -98 -42 -267 18 -343 52 -67 183
-85 291 -41 195 81 301 188 473 479 45 78 76 119 89 122 11 2 61 6 112 9 l92
6 -46 -72 c-118 -183 -156 -385 -94 -511 43 -89 160 -130 255 -89 25 12 46 26
46 31 0 6 -17 2 -37 -9 -23 -12 -57 -20 -86 -20 -83 0 -130 37 -148 115 -24
108 31 264 170 477 68 104 69 105 152 148 261 133 448 311 449 427 0 47 -35
68 -87 54 -125 -35 -316 -208 -514 -467 -45 -58 -49 -61 -100 -67 -30 -4 -80
-7 -111 -7 l-57 0 56 98 c111 193 226 328 322 377 58 29 58 45 3 45 -60 0 -66
13 -22 40 37 23 51 40 32 40 -4 0 -30 -15 -57 -34z m513 -78 c8 -66 -109 -209
-246 -301 -80 -53 -221 -131 -227 -125 -3 2 32 51 77 109 210 271 295 352 363
346 25 -2 31 -7 33 -29z m-633 -10 c-40 -32 -120 -112 -290 -290 -122 -128
-207 -170 -279 -137 -28 13 -56 64 -56 101 0 39 46 125 95 177 112 120 266
178 475 180 l95 1 -40 -32z"/>
<path d="M8780 7884 c-179 -34 -289 -141 -258 -251 15 -54 36 -81 84 -109 l44
-26 -45 -46 c-66 -66 -105 -150 -105 -224 0 -132 72 -208 197 -208 62 0 167
25 246 59 26 11 47 17 47 13 0 -4 -36 -47 -81 -95 -65 -70 -86 -87 -109 -87
-16 0 -82 16 -147 35 -65 20 -161 47 -213 61 -269 72 -514 -29 -514 -212 0
-75 35 -123 120 -165 60 -30 76 -33 178 -37 86 -3 131 1 203 17 176 38 288 95
424 214 56 48 85 66 116 71 86 15 273 126 273 163 0 9 -18 -1 -47 -26 -49 -44
-166 -106 -220 -116 l-33 -6 78 113 c86 126 114 156 221 231 90 63 132 113
134 158 2 30 -1 34 -27 37 -58 7 -153 -82 -299 -279 -65 -88 -329 -160 -417
-114 -65 33 -79 132 -33 225 26 53 149 194 162 186 4 -3 44 -10 89 -16 193
-26 483 46 628 156 87 67 103 173 31 211 -41 21 -140 21 -226 -2 -62 -16 -64
-16 -110 6 -103 49 -154 61 -261 64 -58 2 -116 1 -130 -1z m260 -58 c36 -8 80
-20 98 -27 l33 -14 -93 -39 c-118 -49 -240 -114 -339 -181 l-77 -53 -38 22
c-52 29 -84 79 -84 131 0 53 26 87 88 119 41 20 70 29 177 50 47 9 175 5 235
-8z m461 -27 c11 -5 24 -21 29 -34 35 -93 -115 -211 -347 -272 -79 -21 -123
-26 -228 -27 -71 0 -143 3 -158 7 l-29 8 67 51 c87 65 200 135 306 188 l84 43
48 -27 c53 -29 64 -19 15 16 l-32 22 54 18 c63 19 162 23 191 7z m-940 -868
c97 -23 192 -41 210 -41 l34 -1 -58 -54 c-155 -147 -332 -227 -502 -228 -174
-2 -295 73 -295 181 0 59 25 109 72 139 100 66 265 67 539 4z"/>
<path d="M5456 7856 c-25 -19 -35 -22 -65 -15 -57 14 -182 10 -246 -6 -209
-53 -351 -193 -363 -357 -6 -80 9 -123 49 -143 96 -50 212 25 394 255 118 149
196 224 225 215 20 -6 17 -12 -42 -73 -99 -104 -146 -163 -283 -357 -225 -317
-353 -477 -432 -542 l-44 -37 -67 22 c-180 58 -330 41 -370 -41 -16 -33 -4
-60 41 -87 64 -40 249 -19 389 43 l57 25 103 -41 c101 -41 106 -42 223 -42
163 0 260 33 378 130 177 144 288 382 288 620 0 181 -47 279 -180 372 -3 2 8
17 24 33 35 37 24 39 -22 4 -23 -18 -38 -22 -49 -16 -14 8 -11 13 17 35 20 16
28 27 19 27 -8 0 -28 -11 -44 -24z m-72 -32 c13 -5 2 -21 -47 -74 -35 -37 -92
-105 -127 -151 -83 -109 -184 -210 -237 -238 -54 -27 -123 -28 -147 -2 -55 61
-11 188 104 302 72 72 170 127 270 153 57 15 157 20 184 10z m158 -74 c21 -18
51 -59 70 -98 31 -62 33 -73 32 -162 -2 -119 -29 -223 -86 -333 -85 -164 -228
-322 -349 -387 -127 -67 -249 -75 -408 -25 l-82 26 58 43 c146 108 269 269
474 619 107 183 221 347 242 347 7 0 29 -14 49 -30z m-1057 -925 c40 -9 90
-21 111 -29 l39 -13 -42 -26 c-75 -48 -158 -69 -251 -65 -74 3 -86 6 -103 27
-24 30 -24 33 6 69 42 50 118 62 240 37z"/>
<path d="M7510 7861 c-224 -33 -343 -139 -344 -308 -1 -52 3 -67 29 -104 46
-65 110 -94 210 -94 139 0 219 54 291 197 19 38 33 73 30 76 -8 7 -8 8 -51
-75 -20 -40 -57 -90 -80 -112 -145 -134 -411 -64 -408 107 2 154 142 243 378
241 95 -1 108 -2 361 -39 l161 -24 -52 -43 c-73 -59 -175 -172 -247 -274 l-61
-86 -78 -6 c-71 -6 -128 -22 -117 -33 3 -2 42 1 87 7 46 5 85 8 87 6 8 -8
-208 -316 -278 -396 -178 -206 -341 -272 -488 -198 -35 17 -51 34 -73 77 -59
115 -18 262 107 377 109 101 279 159 365 123 32 -13 61 -62 61 -103 0 -44 -36
-142 -69 -190 -53 -77 -136 -161 -184 -185 -135 -67 -230 14 -182 157 20 63
108 161 165 188 39 18 52 33 27 33 -24 0 -102 -56 -144 -104 -45 -51 -83 -137
-83 -187 0 -171 215 -170 389 1 83 82 106 134 106 242 0 72 -4 91 -21 115 -80
109 -321 77 -482 -63 -75 -66 -115 -153 -115 -247 2 -344 381 -385 696 -75 81
80 136 155 232 317 l76 128 66 7 c36 4 67 5 69 4 2 -2 -4 -28 -13 -57 -10 -37
-12 -56 -5 -63 8 -8 13 -2 17 18 19 85 36 122 59 128 34 8 91 75 77 89 -8 8
-21 6 -46 -7 -19 -11 -35 -22 -35 -25 0 -3 -11 -18 -24 -32 -18 -20 -39 -28
-81 -34 -31 -3 -59 -4 -62 -1 -14 14 145 232 242 332 52 53 54 54 112 54 76 1
201 23 241 44 58 30 67 89 16 102 -37 10 -144 -20 -236 -65 l-81 -40 -116 31
c-64 17 -147 39 -186 50 -80 21 -235 30 -315 19z"/>
<path d="M12220 7848 c-14 -6 -109 -16 -212 -24 -349 -25 -515 -89 -584 -225
-28 -56 -33 -144 -10 -187 23 -43 69 -81 129 -106 l57 -23 -101 -149 c-126
-186 -181 -255 -264 -333 -121 -112 -241 -148 -335 -99 -54 28 -81 81 -61 124
11 24 14 25 61 19 34 -5 55 -3 65 5 23 19 18 57 -10 76 -20 13 -30 14 -59 4
-55 -18 -86 -62 -86 -122 0 -45 4 -54 38 -88 111 -111 339 -65 521 106 97 91
165 180 259 338 l71 119 73 19 c94 23 182 68 247 125 64 56 68 79 4 25 -93
-77 -225 -142 -290 -142 l-23 0 26 43 c87 137 253 325 361 407 55 42 69 48
129 53 63 6 94 19 94 38 0 12 -69 10 -100 -3z m-120 -56 c-160 -110 -336 -275
-430 -405 -61 -85 -77 -91 -140 -56 -49 28 -70 66 -70 129 0 66 22 113 80 170
106 104 320 174 545 178 l40 1 -25 -17z"/>
<path d="M2045 7812 c-126 -67 -318 -206 -421 -304 l-60 -58 -18 58 c-48 153
-149 229 -272 202 -75 -17 -122 -53 -151 -116 -22 -48 -25 -66 -22 -137 5
-101 34 -165 113 -254 l55 -60 -78 -89 c-258 -295 -449 -412 -585 -360 -196
75 -133 368 112 529 88 57 140 77 207 77 43 0 60 -5 82 -24 24 -21 28 -31 26
-73 -3 -125 -149 -340 -272 -403 -40 -20 -106 -26 -127 -12 -39 25 -44 96 -12
179 25 68 118 167 185 197 24 10 40 23 37 28 -9 14 -101 -42 -152 -92 -114
-112 -145 -285 -60 -331 29 -16 107 -5 160 22 162 82 267 237 268 397 0 91
-47 132 -154 132 -151 0 -333 -115 -404 -256 -53 -105 -50 -243 7 -322 43 -58
89 -77 192 -77 78 0 91 3 160 37 118 58 206 140 399 367 l45 53 55 -26 c30
-14 74 -28 97 -32 24 -3 43 -9 43 -12 0 -4 -220 -317 -253 -359 -7 -10 2 -13
39 -13 l49 0 126 183 126 182 54 8 c55 8 121 40 153 76 32 35 9 36 -30 1 -40
-35 -79 -54 -132 -63 -25 -5 -31 -4 -26 6 95 157 240 362 420 594 74 94 134
174 134 177 0 16 -52 2 -115 -32z m64 1 c-8 -10 -66 -77 -130 -149 -134 -150
-243 -286 -349 -432 -41 -56 -75 -100 -77 -98 -2 2 1 34 7 72 5 38 10 103 10
145 l0 76 73 70 c114 108 269 222 399 293 84 46 85 46 67 23z m-684 -155 c56
-38 116 -144 115 -202 -1 -13 -50 -72 -131 -156 l-130 -135 -44 48 c-54 58
-85 137 -92 234 -5 64 -3 78 21 127 51 105 174 144 261 84z m122 -366 c-5 -92
-22 -209 -32 -220 -10 -11 -195 54 -195 69 0 18 213 259 229 259 2 0 1 -49 -2
-108z"/>
<path d="M3106 7826 c-28 -22 -32 -22 -74 -9 -59 17 -171 16 -251 -2 -142 -34
-269 -123 -321 -225 -72 -141 -5 -284 117 -251 87 23 157 79 286 231 77 91
200 210 217 210 3 0 11 -4 19 -9 11 -7 -7 -29 -76 -95 -122 -116 -190 -205
-348 -454 -245 -388 -369 -516 -515 -530 -137 -13 -221 95 -192 244 23 110
104 234 199 299 86 60 193 91 254 75 76 -21 83 -98 20 -224 -49 -98 -113 -181
-182 -235 -151 -121 -254 -33 -170 145 36 77 81 128 155 176 39 25 52 38 39
38 -11 0 -38 -13 -59 -28 -134 -98 -216 -271 -170 -360 39 -76 177 -47 303 64
62 53 105 119 132 201 42 125 18 214 -64 241 -86 29 -254 -28 -361 -122 -114
-100 -159 -278 -106 -417 48 -123 207 -155 368 -74 156 79 282 217 408 443 37
67 71 124 76 127 4 3 40 -11 79 -31 119 -59 170 -143 158 -259 -16 -152 -148
-294 -275 -295 -117 0 -183 97 -138 203 17 42 70 87 102 87 13 0 24 5 24 10 0
17 -33 11 -75 -13 -102 -58 -115 -210 -23 -280 94 -72 256 -46 369 60 75 70
103 130 103 223 1 59 -4 84 -22 117 -29 56 -83 107 -145 138 l-51 25 60 0 c98
0 161 24 219 83 31 32 55 68 63 93 28 95 5 196 -63 271 l-44 50 29 22 c17 12
30 26 30 32 0 6 -15 0 -34 -15 -58 -44 -99 -29 -44 16 41 34 16 38 -26 4z
m-60 -28 c3 -4 -32 -44 -78 -90 -46 -46 -123 -128 -172 -182 -132 -144 -218
-194 -289 -167 -35 14 -61 70 -51 115 26 122 166 252 336 311 61 22 87 25 160
22 48 -2 90 -6 94 -9z m107 -76 c28 -31 47 -89 47 -145 0 -184 -170 -323 -338
-278 l-43 12 27 47 c85 150 258 382 283 382 4 0 15 -8 24 -18z"/>
<path d="M3790 7840 c-160 -25 -280 -115 -280 -210 0 -64 52 -124 135 -155 25
-10 45 -19 45 -20 0 -1 -29 -32 -63 -67 -175 -178 -266 -383 -237 -535 24
-133 93 -187 235 -187 121 1 234 42 343 126 63 49 111 112 154 204 25 54 33
85 36 149 7 141 -32 180 -173 173 -138 -7 -265 -80 -343 -198 -69 -103 -78
-216 -21 -272 98 -98 370 81 405 266 5 28 4 37 -5 32 -6 -4 -11 -15 -11 -24 0
-37 -52 -125 -103 -176 -88 -88 -188 -128 -252 -102 -142 60 99 409 314 455
62 13 119 0 150 -35 34 -41 26 -110 -27 -217 -99 -200 -319 -357 -501 -357
-144 0 -191 86 -137 255 40 127 137 275 265 408 l74 77 118 0 c183 0 346 39
484 115 132 73 180 161 119 222 -25 25 -28 25 -122 20 -54 -3 -116 -12 -140
-21 -40 -14 -44 -14 -75 4 -97 56 -272 88 -387 70z m313 -70 c37 -11 67 -23
67 -26 0 -3 -30 -19 -67 -36 -102 -46 -218 -113 -311 -180 -90 -65 -88 -65
-175 -21 -110 55 -116 167 -12 229 124 72 330 87 498 34z m395 -16 c16 -11 22
-25 22 -51 0 -102 -240 -224 -502 -254 -57 -7 -125 -9 -152 -5 l-49 8 38 31
c76 64 211 156 287 197 l78 42 45 -26 c57 -34 69 -33 25 3 -19 16 -32 32 -29
35 3 3 30 12 60 20 73 20 149 20 177 0z"/>
<path d="M6140 7836 c-66 -19 -103 -41 -139 -81 -72 -83 -22 -184 114 -230 68
-23 70 -25 78 -64 5 -24 20 -51 37 -68 l29 -27 -102 -31 c-197 -60 -330 -152
-388 -270 -27 -56 -31 -74 -31 -148 0 -214 137 -317 371 -277 213 36 382 200
398 387 14 173 -79 268 -231 233 -176 -40 -316 -186 -316 -332 0 -130 70 -171
189 -112 108 54 193 173 190 267 l-1 32 -10 -35 c-35 -125 -81 -188 -173 -241
-60 -34 -123 -39 -148 -11 -49 53 8 206 113 306 128 123 281 148 334 56 28
-46 26 -135 -4 -210 -27 -70 -120 -191 -185 -243 -80 -64 -127 -80 -230 -81
-106 -1 -133 5 -175 40 -47 40 -64 80 -63 154 2 185 159 370 401 471 60 25 90
31 137 30 66 -1 97 11 78 30 -8 8 -27 9 -69 1 -54 -9 -59 -8 -81 14 -19 19
-23 33 -21 62 l3 37 55 -3 c127 -8 334 34 447 90 83 41 153 115 153 161 0 72
-75 96 -229 73 -53 -8 -108 -19 -122 -25 -20 -7 -44 -3 -110 21 -99 35 -226
46 -299 24z m256 -41 c42 -8 79 -17 81 -19 3 -2 -28 -21 -68 -42 -88 -46 -172
-122 -196 -175 -16 -37 -19 -39 -48 -33 -105 22 -175 79 -175 143 0 50 20 74
81 100 98 42 198 50 325 26z m474 -15 c26 -26 25 -39 -3 -81 -51 -76 -192
-144 -365 -174 -93 -17 -242 -20 -242 -4 0 32 220 198 286 215 13 3 43 -5 74
-21 28 -14 57 -24 63 -22 7 2 -13 16 -43 32 -53 27 -54 28 -30 37 112 42 228
50 260 18z"/>
<path d="M3575 6250 c-59 -40 -61 -41 -125 -35 -154 15 -379 -30 -482 -97
-157 -100 -211 -318 -96 -388 81 -49 175 -5 315 148 137 148 220 230 284 278
51 40 57 42 107 37 l52 -6 -47 -22 c-71 -33 -178 -123 -245 -206 -32 -41 -132
-186 -221 -324 -199 -308 -254 -381 -345 -467 -86 -81 -137 -109 -211 -115
-77 -6 -137 24 -169 87 -20 38 -23 56 -19 120 9 174 148 338 339 401 81 26
127 21 159 -19 30 -38 20 -105 -30 -208 -84 -169 -249 -301 -336 -268 -28 11
-47 62 -40 107 17 101 121 242 203 276 18 8 32 17 32 22 0 19 -86 -35 -137
-87 -71 -71 -107 -148 -108 -232 0 -55 3 -66 24 -83 50 -41 149 -17 253 62
118 88 185 218 176 342 -4 52 -9 64 -36 88 -58 52 -149 47 -278 -15 -190 -91
-285 -268 -240 -445 20 -80 45 -114 101 -141 117 -57 292 -1 451 143 88 80
125 133 294 422 84 143 173 288 197 323 62 87 170 193 221 216 50 23 54 36 10
37 -18 1 -44 4 -58 8 -24 7 -23 8 23 35 26 15 47 32 47 37 0 13 2 13 -65 -31z
m-135 -97 c-65 -56 -133 -125 -251 -254 -129 -141 -208 -189 -283 -168 -135
37 -72 244 111 365 102 68 228 101 388 103 l90 1 -55 -47z"/>
<path d="M1545 6234 c-25 -9 -103 -19 -205 -24 -308 -17 -461 -65 -557 -174
-62 -70 -82 -178 -47 -252 23 -47 86 -102 128 -110 20 -3 36 -8 36 -11 0 -2
-62 -91 -137 -196 -203 -284 -312 -389 -431 -415 -61 -14 -126 3 -165 42 -103
103 -59 308 98 454 117 110 274 162 337 113 55 -44 44 -132 -33 -264 -44 -74
-143 -186 -192 -216 -39 -23 -97 -35 -127 -26 -12 4 -28 22 -36 41 -39 93 74
288 203 349 22 10 32 20 25 23 -19 6 -116 -63 -158 -112 -94 -109 -122 -270
-53 -306 97 -52 338 108 400 266 31 81 33 191 3 231 -32 43 -85 57 -162 42
-148 -27 -293 -133 -348 -252 -26 -54 -29 -74 -29 -157 0 -80 4 -103 24 -143
85 -174 344 -129 565 97 39 41 124 152 191 250 90 132 126 177 145 181 76 17
163 49 215 81 61 36 139 104 130 113 -3 2 -22 -12 -43 -32 -20 -19 -64 -52
-97 -72 -59 -35 -184 -80 -205 -73 -23 7 149 235 266 352 114 114 172 152 245
160 71 8 99 20 99 41 0 19 -33 19 -85 -1z m-116 -48 c-2 -2 -42 -32 -88 -66
-111 -82 -255 -222 -349 -340 -42 -52 -78 -97 -79 -99 -2 -2 -21 1 -43 8 -56
16 -92 67 -98 136 -6 72 11 115 69 179 99 109 304 183 513 185 44 1 77 -1 75
-3z"/>
<path d="M2505 6233 c-25 -9 -101 -18 -203 -24 -219 -11 -351 -38 -455 -91
-163 -82 -218 -271 -113 -386 24 -27 87 -62 112 -62 23 0 17 -10 -91 -155 -53
-71 -99 -136 -102 -143 -3 -6 -31 -19 -62 -28 -223 -61 -401 -142 -493 -224
-154 -137 -80 -258 117 -190 138 48 272 145 435 317 94 99 112 114 170 136
137 52 349 162 336 174 -2 2 -43 -17 -91 -43 -88 -47 -287 -136 -293 -130 -1
2 40 65 93 140 73 103 103 138 123 142 83 19 114 29 178 59 67 32 181 121 170
133 -3 3 -25 -13 -49 -35 -73 -67 -183 -122 -276 -138 l-43 -7 43 63 c78 118
166 223 256 310 116 112 153 135 228 143 61 7 110 30 100 46 -9 14 -43 11 -90
-7z m-156 -80 c-141 -96 -310 -258 -419 -402 -50 -66 -58 -72 -83 -67 -68 13
-117 82 -117 164 0 47 39 128 82 169 106 102 306 170 507 172 l83 1 -53 -37z
m-748 -850 c-29 -42 -218 -224 -280 -273 -121 -93 -234 -126 -276 -80 -54 59
43 169 235 265 75 38 289 114 323 115 17 0 17 -2 -2 -27z"/>
<path d="M4007 6239 c-114 -27 -249 -134 -383 -304 -65 -83 -172 -192 -214
-218 -25 -16 -51 -22 -89 -22 -74 0 -82 -23 -9 -27 47 -3 54 -6 67 -33 13 -26
12 -43 -10 -155 -15 -81 -24 -161 -24 -226 0 -93 2 -104 28 -142 52 -79 159
-124 243 -100 39 10 114 75 114 98 0 6 -19 -9 -43 -35 -38 -42 -48 -48 -93
-52 -81 -8 -128 25 -156 108 -7 21 -12 120 -12 254 -1 205 -2 222 -22 255
l-21 36 58 32 c39 22 87 65 151 134 270 296 356 368 454 383 90 13 164 -39
164 -116 0 -50 -19 -87 -66 -128 -20 -18 -34 -34 -31 -37 11 -11 81 63 100
105 33 76 3 155 -73 185 -44 17 -75 19 -133 5z"/>
<path d="M9742 6234 c-219 -58 -499 -259 -665 -477 -59 -76 -127 -211 -145
-287 -41 -171 -14 -335 68 -403 134 -113 457 -9 682 220 106 107 151 169 213
298 114 234 133 466 43 530 -95 66 -278 17 -403 -109 -75 -75 -98 -122 -103
-206 -2 -53 1 -71 18 -98 65 -105 220 -61 298 85 17 33 34 79 37 104 5 41 4
40 -19 -23 -32 -89 -77 -152 -130 -183 -55 -32 -106 -33 -143 -1 -62 53 -23
179 93 305 135 145 315 185 369 81 21 -41 21 -144 0 -219 -65 -225 -343 -590
-553 -725 -163 -106 -315 -115 -396 -26 -27 30 -35 49 -40 96 -24 205 138 513
399 762 190 181 353 271 493 272 47 0 86 -6 107 -16 40 -19 69 -73 63 -120 -2
-19 0 -34 4 -34 14 0 8 90 -8 121 -32 63 -158 87 -282 53z"/>
<path d="M8893 6225 c-152 -41 -288 -152 -430 -350 -54 -75 -242 -373 -358
-567 -39 -65 -71 -114 -73 -109 -6 19 44 191 153 521 63 190 121 374 130 410
9 36 18 74 21 85 14 55 -187 -195 -467 -580 -127 -176 -252 -344 -277 -373
-56 -66 -150 -141 -222 -177 -72 -37 -169 -44 -220 -18 -105 55 -118 231 -27
382 68 113 230 221 346 229 72 5 97 -7 112 -58 34 -114 -134 -376 -288 -447
-59 -27 -96 -23 -120 13 -36 56 14 218 89 291 18 18 58 46 88 62 61 34 52 43
-11 11 -94 -48 -157 -130 -185 -240 -39 -151 47 -213 195 -139 133 67 230 193
254 332 12 75 4 128 -27 164 -20 23 -33 27 -87 31 -157 10 -357 -114 -425
-263 -54 -118 -39 -267 34 -344 128 -134 443 -39 614 186 25 32 82 121 127
198 154 259 445 685 458 671 7 -7 -56 -194 -152 -451 -103 -275 -151 -431
-199 -647 -9 -40 16 -11 105 120 313 461 465 666 599 805 165 173 266 237 385
245 61 3 74 1 105 -20 69 -47 67 -142 -6 -215 -55 -55 -52 -69 5 -18 93 85 89
209 -9 260 -37 19 -166 19 -237 0z"/>
<path d="M11180 6214 c-34 -22 -37 -22 -90 -8 -108 28 -235 9 -367 -56 -139
-69 -217 -182 -218 -318 0 -71 1 -75 33 -103 76 -68 199 -7 353 178 89 106
217 241 242 254 11 6 24 6 37 -1 19 -10 16 -15 -41 -67 -107 -100 -216 -241
-407 -528 -252 -378 -360 -487 -498 -503 -132 -15 -224 101 -195 246 29 146
128 270 273 342 67 33 96 42 142 43 52 1 61 -2 82 -26 61 -71 -10 -251 -158
-400 -93 -94 -198 -126 -234 -72 -24 36 -13 117 24 192 33 65 136 169 177 179
14 3 25 10 25 15 0 15 -14 10 -61 -20 -127 -82 -216 -245 -188 -345 39 -141
314 -15 416 190 47 95 57 199 24 252 -28 43 -62 55 -144 49 -122 -8 -279 -101
-345 -205 -68 -106 -78 -244 -25 -350 23 -47 36 -61 77 -81 130 -64 301 -3
474 171 90 90 153 182 272 403 111 206 197 337 280 428 59 63 64 67 80 52 48
-43 74 -167 55 -256 -16 -76 -79 -155 -152 -192 -44 -23 -138 -39 -190 -32
-42 5 -45 4 -23 -6 14 -7 68 -12 120 -12 120 0 190 24 255 89 104 105 95 277
-21 395 l-44 45 31 23 c17 12 28 25 25 28 -2 3 -20 -6 -38 -20 -27 -21 -37
-23 -52 -15 -19 10 -18 12 9 34 39 31 28 37 -15 8z m-63 -27 c7 -5 -10 -28
-49 -65 -33 -31 -103 -107 -154 -169 -180 -216 -304 -286 -374 -211 -29 32
-27 101 7 167 34 70 126 167 199 211 99 59 176 81 274 77 47 -1 91 -6 97 -10z"/>
<path d="M12174 6230 c-156 -33 -371 -167 -552 -344 -194 -189 -285 -356 -299
-551 -18 -255 117 -366 366 -301 35 10 64 16 65 14 1 -2 10 -15 19 -30 46 -73
139 -76 272 -9 46 24 91 51 101 62 24 27 15 24 -52 -16 -61 -37 -112 -55 -154
-55 -32 0 -85 32 -100 61 -14 24 -20 18 79 76 86 51 236 194 300 288 105 152
159 306 168 481 5 92 3 116 -12 147 -51 107 -210 106 -374 -4 -131 -88 -198
-248 -147 -352 58 -118 220 -76 299 78 22 45 47 135 37 135 -5 0 -14 -19 -21
-42 -38 -144 -144 -245 -234 -222 -109 27 -72 204 73 349 82 82 156 120 234
120 52 0 61 -3 90 -32 29 -29 33 -40 36 -101 10 -174 -159 -482 -398 -723 -63
-64 -124 -121 -136 -127 -17 -9 -24 -5 -55 36 -46 63 -89 85 -156 78 -55 -5
-143 -39 -143 -55 0 -5 20 -1 45 10 64 29 138 29 169 0 22 -21 46 -80 46 -114
0 -25 -86 -52 -165 -52 -56 0 -79 5 -114 25 -66 37 -84 74 -84 174 1 141 75
314 215 503 124 167 346 363 498 439 94 47 202 58 265 28 46 -21 80 -88 70
-134 -4 -19 -3 -30 4 -30 6 0 11 20 11 48 0 57 -26 104 -72 128 -37 19 -135
27 -194 14z"/>
<path d="M5195 6216 c-22 -7 -58 -22 -79 -33 l-39 -20 -42 24 c-126 70 -388
11 -516 -117 -74 -74 -112 -162 -113 -259 0 -114 45 -186 135 -216 l48 -16
-37 -57 c-88 -136 -192 -267 -244 -310 -13 -11 -30 -9 -94 8 -140 36 -287 23
-345 -31 -40 -37 -38 -91 4 -123 65 -48 248 -28 397 44 l81 40 122 -54 c68
-30 148 -59 179 -65 95 -17 214 11 323 77 122 73 150 105 48 53 -159 -80 -353
-88 -557 -24 -45 14 -83 27 -85 29 -3 2 21 29 53 60 63 61 137 158 206 269 50
82 54 85 101 85 64 0 187 38 282 87 169 87 303 250 336 411 13 62 7 98 -22
130 -24 25 -77 29 -142 8z m111 -2 c90 -24 20 -214 -140 -383 -123 -129 -269
-209 -430 -236 l-39 -6 28 48 c15 26 44 76 64 111 26 44 43 64 61 68 120 25
194 68 234 137 34 58 41 106 22 151 l-15 36 39 26 c67 44 128 61 176 48z
m-276 -39 c17 -9 30 -17 30 -19 0 -2 -24 -22 -52 -44 -76 -57 -143 -126 -205
-210 -46 -62 -58 -72 -76 -66 -34 10 -95 43 -102 54 -3 5 -11 10 -17 10 -23 0
20 -35 75 -60 l57 -26 -71 -112 c-67 -104 -73 -111 -98 -105 -72 17 -123 68
-139 140 -36 161 146 377 369 437 73 20 192 20 229 1z m70 -122 c0 -56 -29
-112 -77 -152 -42 -35 -136 -74 -166 -69 -16 3 -13 12 31 79 27 42 81 109 118
149 62 65 69 70 81 54 7 -10 13 -37 13 -61z m-924 -843 c43 -11 82 -24 87 -29
12 -12 -72 -69 -143 -98 -76 -31 -205 -33 -244 -2 -43 34 -31 86 27 116 73 38
160 42 273 13z"/>
<path d="M6816 6209 c-55 -13 -180 -81 -261 -142 -113 -84 -287 -259 -428
-431 -304 -369 -403 -469 -531 -537 -81 -43 -165 -50 -221 -17 -183 107 -73
434 189 564 68 33 90 39 144 39 55 0 66 -3 83 -24 41 -50 16 -155 -65 -280
-67 -102 -120 -157 -188 -190 -75 -38 -101 -39 -135 -5 -23 23 -25 31 -20 78
11 104 112 248 206 292 21 10 30 19 23 22 -19 6 -118 -64 -157 -113 -84 -101
-114 -238 -65 -290 79 -85 318 52 402 231 39 84 50 192 24 243 -32 61 -108 75
-217 41 -129 -39 -246 -129 -292 -225 -46 -93 -56 -170 -36 -267 9 -42 21 -62
54 -94 106 -103 257 -73 462 91 109 87 214 201 406 440 178 221 382 432 469
483 55 33 170 84 175 78 2 -1 -54 -61 -125 -132 -449 -455 -691 -827 -648
-998 5 -21 12 -26 38 -26 42 0 106 66 250 255 158 208 457 563 566 674 110
110 203 180 280 210 l53 21 -178 -188 c-336 -356 -468 -549 -509 -742 -39
-187 43 -320 197 -320 53 0 148 34 163 59 10 15 8 14 -47 -14 -99 -50 -185
-40 -227 27 -18 29 -21 45 -17 123 4 99 19 148 80 275 78 160 289 453 515 715
33 38 58 73 55 78 -5 8 -42 1 -96 -19 -92 -34 -225 -143 -368 -299 -116 -126
-365 -427 -472 -570 -116 -155 -195 -245 -214 -245 -18 0 -14 15 40 139 98
227 327 555 610 876 53 60 97 113 97 117 0 10 -13 9 -64 -3z"/>
<path d="M3224 4605 c-96 -57 -179 -234 -205 -434 l-11 -89 -56 -47 -56 -47
-22 50 c-69 156 -291 143 -466 -29 -94 -92 -140 -189 -144 -303 l-3 -81 -50
-20 c-27 -11 -53 -24 -57 -28 -13 -13 14 -7 62 13 26 11 48 19 48 18 1 -2 17
-33 35 -70 58 -122 153 -174 304 -165 79 4 98 9 170 45 136 68 223 169 272
316 21 62 27 107 35 247 l9 170 74 92 c166 206 220 324 169 370 -26 24 -60 21
-108 -8z m87 5 c61 -33 -11 -184 -188 -396 l-33 -39 0 47 c0 157 69 327 154
379 36 22 41 23 67 9z m-521 -498 c45 -22 82 -77 78 -117 -3 -25 -16 -39 -93
-91 -103 -70 -267 -166 -273 -159 -8 7 44 110 74 144 15 19 46 47 68 62 21 16
35 29 29 29 -20 0 -94 -61 -123 -102 -17 -22 -39 -67 -51 -98 -20 -56 -21 -57
-100 -92 l-79 -36 0 43 c0 147 131 345 273 410 64 30 146 33 197 7z m206 -149
c-22 -274 -118 -462 -281 -546 -52 -28 -70 -32 -140 -32 -59 0 -89 5 -115 19
-76 40 -125 108 -136 189 l-6 43 81 36 81 37 0 -35 c0 -158 160 -191 296 -62
76 72 124 193 124 314 0 38 5 47 46 83 26 23 49 41 52 41 3 0 2 -39 -2 -87z
m-126 -52 c0 -72 -72 -234 -133 -299 -11 -12 -45 -34 -74 -49 -49 -24 -58 -25
-94 -14 -33 10 -44 20 -60 54 -10 23 -19 58 -19 77 0 35 2 37 100 90 55 30
137 80 182 111 46 31 86 57 91 58 4 0 7 -12 7 -28z"/>
<path d="M7713 4596 c-94 -31 -200 -114 -291 -229 -27 -34 -120 -165 -207
-292 -177 -259 -232 -330 -331 -429 -89 -88 -177 -151 -264 -187 -75 -32 -160
-52 -160 -38 0 5 4 9 9 9 16 0 200 181 276 271 233 278 320 489 281 679 -20
97 -55 147 -125 183 -41 20 -69 27 -113 27 -144 0 -320 -105 -382 -228 -87
-173 -32 -330 122 -349 150 -17 306 133 307 294 0 51 -4 66 -23 86 -44 46
-115 40 -178 -15 -36 -32 -78 -101 -72 -120 2 -6 15 11 28 37 33 64 87 106
143 112 39 5 46 2 65 -22 29 -36 30 -122 3 -182 -25 -54 -95 -129 -144 -154
-54 -28 -124 -35 -169 -16 -55 23 -73 58 -73 142 0 62 5 78 40 145 47 88 128
173 205 214 73 40 188 48 237 17 107 -68 98 -280 -22 -516 -94 -186 -278 -447
-403 -572 l-63 -63 49 0 c137 0 355 120 503 278 35 37 170 207 299 377 316
416 424 523 549 540 157 21 215 -134 94 -251 -51 -50 -46 -59 8 -14 47 38 69
86 69 149 0 44 -5 56 -34 89 -33 36 -36 37 -113 39 -45 2 -95 -3 -120 -11z"/>
<path d="M9790 4596 c-108 -31 -238 -120 -326 -224 -30 -37 -126 -173 -212
-302 -85 -129 -181 -269 -213 -310 -65 -86 -171 -191 -242 -239 -50 -34 -187
-101 -207 -101 -6 0 23 29 64 65 189 166 277 307 516 820 36 77 86 168 112
203 27 35 48 65 48 68 0 11 -86 -9 -125 -29 -108 -54 -188 -149 -420 -498
-170 -256 -285 -397 -408 -500 -62 -52 -191 -129 -216 -129 -6 0 28 37 76 83
141 135 317 366 392 514 86 172 79 394 -17 497 -43 45 -97 66 -179 66 -229 0
-413 -162 -413 -366 0 -128 73 -204 197 -204 88 0 191 69 237 158 43 82 42
181 0 228 -23 24 -31 26 -78 22 -58 -5 -95 -27 -133 -81 -25 -36 -43 -94 -25
-83 6 3 14 20 17 37 10 43 75 106 119 115 83 15 121 -27 114 -125 -11 -148
-148 -276 -278 -258 -82 11 -122 62 -122 156 -1 150 148 342 295 382 52 14
147 6 179 -15 13 -9 35 -35 49 -58 21 -38 24 -55 24 -143 0 -127 -19 -198 -90
-341 -69 -141 -252 -415 -345 -517 -39 -43 -68 -82 -65 -87 9 -14 105 19 175
60 183 107 342 287 555 625 190 302 281 411 377 455 68 31 73 24 22 -32 -87
-97 -192 -270 -394 -648 -93 -175 -126 -225 -234 -360 -41 -52 -72 -98 -67
-103 11 -11 124 28 199 69 96 54 209 143 297 235 85 89 113 125 331 428 280
391 452 521 575 438 75 -50 77 -152 4 -224 -23 -24 -37 -43 -31 -43 14 0 69
56 85 87 16 32 14 119 -5 154 -18 36 -83 69 -134 68 -19 0 -55 -6 -80 -13z"/>
<path d="M2093 4574 c-29 -22 -35 -23 -55 -12 -16 9 -61 13 -138 12 -100 0
-125 -4 -190 -29 -188 -70 -284 -184 -285 -338 0 -65 2 -70 33 -98 84 -76 205
-11 390 209 150 177 225 238 247 201 4 -5 -42 -61 -102 -122 -133 -137 -220
-252 -352 -465 -166 -270 -280 -400 -405 -462 -67 -34 -147 -40 -195 -15 -142
73 -121 317 41 476 79 78 186 132 274 137 57 4 65 2 88 -21 105 -105 -149
-496 -324 -501 -164 -4 -66 298 127 389 21 10 32 20 25 23 -19 6 -105 -53
-152 -104 -52 -57 -92 -143 -98 -210 -4 -43 0 -55 21 -80 22 -26 32 -29 79
-28 113 1 260 110 324 240 45 91 58 198 30 253 -42 80 -176 80 -324 1 -79 -42
-132 -88 -170 -148 -85 -131 -78 -331 14 -411 117 -103 336 -39 529 154 84 83
123 142 212 312 60 114 67 124 80 108 19 -27 16 -74 -13 -215 -14 -69 -28
-163 -31 -210 -5 -79 -3 -89 24 -140 42 -79 103 -115 193 -115 57 0 74 5 115
30 27 17 50 36 53 43 2 7 -17 -2 -42 -19 -36 -26 -59 -34 -104 -37 -54 -4 -62
-2 -94 26 -56 50 -63 86 -60 344 2 186 0 233 -13 263 -8 21 -15 39 -15 40 0 1
48 5 108 8 113 5 173 21 233 63 108 75 115 236 13 342 l-45 47 32 28 c18 15
28 27 22 27 -6 0 -25 -11 -42 -25 -26 -23 -33 -24 -51 -13 -20 13 -20 13 12
40 42 35 24 37 -19 2z m-80 -20 c15 -3 27 -8 27 -11 0 -2 -25 -28 -57 -56 -31
-29 -98 -102 -150 -164 -172 -207 -293 -275 -364 -204 -59 60 -31 156 79 273
52 55 83 78 156 113 121 60 192 71 309 49z m168 -149 c30 -107 -29 -232 -135
-287 -42 -22 -153 -48 -204 -48 l-34 0 28 48 c64 111 157 242 220 311 l68 73
23 -28 c13 -16 28 -47 34 -69z"/>
<path d="M5320 4589 c-79 -13 -186 -67 -251 -127 -137 -125 -155 -331 -36
-410 35 -23 51 -27 111 -27 86 1 132 22 195 90 59 64 85 125 85 202 1 52 -3
65 -23 87 -31 33 -100 36 -147 7 -36 -22 -78 -73 -94 -115 -15 -41 -3 -46 14
-5 31 74 101 129 165 129 67 0 95 -112 52 -207 -44 -96 -159 -183 -244 -183
-98 0 -142 48 -142 155 0 62 5 78 39 143 97 181 282 288 420 242 107 -35 134
-196 59 -349 -25 -52 -162 -218 -347 -421 -100 -109 -147 -194 -154 -276 -5
-66 12 -97 63 -114 93 -31 220 36 429 224 44 39 77 67 75 61 -3 -5 -21 -44
-42 -85 -48 -96 -51 -158 -10 -190 53 -42 138 -9 300 115 144 110 148 113 141
120 -4 4 -42 -22 -85 -57 -104 -84 -161 -123 -225 -153 -64 -30 -89 -31 -112
-6 -43 47 -4 108 410 647 200 261 364 477 364 480 0 2 -17 4 -39 4 l-38 0
-225 -287 c-123 -159 -255 -328 -293 -378 -125 -163 -268 -300 -435 -415 -126
-86 -230 -90 -230 -7 0 65 47 131 236 334 217 232 276 306 301 382 37 115 15
259 -50 329 -51 55 -138 77 -237 61z"/>
<path d="M3891 4575 c-176 -49 -263 -143 -265 -287 -1 -58 3 -71 29 -109 43
-61 108 -92 193 -93 97 -1 155 19 216 75 52 47 122 166 114 191 -3 7 -18 -18
-35 -54 -61 -130 -138 -188 -261 -196 -90 -6 -147 14 -195 67 -40 44 -52 85
-43 146 14 92 94 161 221 191 88 20 286 14 455 -14 63 -11 141 -23 172 -27
l57 -6 -57 -49 c-119 -100 -189 -186 -354 -434 -204 -306 -295 -415 -412 -497
-38 -27 -92 -56 -120 -64 -228 -68 -381 118 -278 339 65 139 227 253 373 264
84 6 122 -8 143 -53 21 -43 20 -70 -2 -143 -32 -100 -154 -252 -236 -291 -47
-23 -132 -28 -157 -8 -92 71 -10 280 141 357 23 12 39 24 36 27 -11 12 -97
-41 -139 -86 -150 -161 -119 -348 55 -328 109 13 262 126 314 233 34 71 39
177 9 238 -49 101 -242 101 -410 1 -108 -65 -163 -138 -186 -245 -20 -91 15
-212 78 -272 81 -78 232 -85 379 -18 85 38 146 81 227 159 86 83 142 159 247
336 46 77 120 194 164 260 93 138 223 279 248 270 24 -10 203 13 248 31 52 21
83 59 69 85 -21 41 -138 19 -280 -51 l-65 -32 -175 48 c-166 46 -180 48 -319
51 -105 2 -160 -2 -199 -12z m1019 -10 c16 -20 5 -34 -48 -58 -50 -21 -222
-38 -222 -20 0 20 177 91 231 92 15 1 32 -6 39 -14z"/>
<path d="M10400 4574 c-103 -28 -190 -99 -231 -188 -26 -57 -25 -151 1 -194
22 -36 74 -72 105 -72 12 0 3 8 -25 23 -66 33 -85 65 -85 145 0 55 5 75 27
112 77 130 240 201 350 152 134 -59 154 -229 54 -457 l-23 -51 -184 -58 c-231
-75 -342 -129 -419 -206 -153 -153 -123 -363 55 -378 73 -6 135 18 198 77 41
38 87 105 87 126 0 17 -19 0 -33 -30 -72 -150 -269 -210 -326 -98 -20 39 -13
133 14 191 31 66 122 163 189 201 42 24 386 151 408 151 4 0 -5 -28 -18 -62
-41 -105 -56 -179 -57 -278 -1 -104 12 -156 50 -208 51 -68 130 -90 206 -58
33 13 117 100 117 120 0 6 -19 -10 -41 -37 -49 -57 -85 -77 -136 -77 -86 0
-118 54 -117 200 1 112 19 189 84 359 l30 78 123 58 c202 94 284 158 323 250
29 71 9 157 -48 199 -52 37 -171 17 -198 -33 -19 -37 -29 -71 -21 -71 5 0 11
11 15 23 8 35 54 76 92 83 107 20 158 -93 98 -214 -34 -68 -99 -124 -226 -194
-119 -65 -154 -78 -145 -55 3 9 13 51 22 94 54 255 -98 436 -315 377z"/>
<path d="M2731 2979 c-116 -20 -198 -93 -223 -198 -19 -86 24 -176 99 -207 44
-19 137 -18 180 2 57 28 151 136 141 165 -2 6 -20 -14 -40 -44 -48 -72 -92
-104 -161 -118 -51 -11 -60 -10 -104 12 -63 31 -93 77 -93 141 0 114 92 188
234 188 78 0 117 -11 246 -70 107 -49 206 -80 254 -80 27 0 35 -14 13 -23 -17
-6 -168 -182 -242 -280 -32 -43 -63 -76 -69 -74 -24 9 -139 -14 -184 -37 -50
-26 -97 -68 -57 -52 71 30 104 37 161 34 l63 -3 -79 -107 c-81 -110 -205 -247
-272 -299 l-37 -30 -58 15 c-101 26 -192 31 -256 12 -59 -17 -77 -36 -77 -79
0 -48 32 -62 139 -62 89 0 102 3 179 37 l84 37 91 -29 c197 -63 277 -72 382
-44 114 29 214 111 274 224 41 77 35 99 -8 31 -100 -156 -259 -217 -501 -191
-59 6 -128 17 -153 23 l-47 12 88 67 c112 85 231 206 296 299 l51 74 48 -3
c58 -4 146 20 178 48 l24 21 -35 -8 c-37 -8 -168 -8 -177 0 -7 8 139 224 204
302 l58 69 98 13 c54 8 123 23 155 35 59 22 132 83 132 111 0 86 -193 47 -332
-66 -32 -26 -67 -47 -77 -47 -25 0 -39 6 -231 96 -90 42 -180 77 -214 83 -67
12 -69 12 -145 0z m971 -53 c13 -18 9 -27 -22 -56 -45 -42 -132 -71 -225 -77
l-80 -4 37 33 c105 96 260 151 290 104z m-1232 -1036 l55 -17 -70 -34 c-113
-54 -255 -51 -263 7 -10 67 133 90 278 44z"/>
<path d="M1340 2970 c-25 -5 -79 -26 -120 -47 -212 -104 -317 -348 -204 -473
62 -69 147 -77 246 -23 125 68 214 240 175 336 -18 41 -46 53 -104 44 -67 -11
-164 -103 -163 -154 1 -11 8 -5 20 18 22 41 90 106 126 119 40 16 72 12 95
-11 18 -18 21 -30 17 -78 -13 -173 -217 -345 -341 -286 -45 21 -67 67 -67 138
0 118 131 296 270 367 54 28 76 34 135 34 126 2 179 -53 173 -179 -5 -116 -36
-164 -286 -446 -95 -108 -132 -174 -132 -236 0 -118 95 -166 211 -107 33 16
110 83 219 190 93 90 172 164 176 164 4 0 0 -8 -8 -17 -8 -10 -99 -125 -202
-255 -175 -222 -190 -238 -229 -248 -84 -21 -284 -92 -352 -125 -138 -66 -219
-144 -219 -211 0 -55 22 -69 112 -69 60 1 91 7 140 27 137 57 268 158 392 301
71 82 81 90 172 131 156 70 308 163 308 187 0 6 -28 -10 -62 -34 -111 -78
-331 -187 -312 -155 4 7 177 233 383 501 207 269 391 508 409 533 l34 44 -49
0 -49 0 -191 -248 c-166 -214 -221 -276 -410 -464 -172 -171 -231 -222 -273
-242 -67 -31 -89 -32 -124 -5 -19 15 -26 30 -26 55 0 68 45 131 248 347 120
128 156 186 174 283 21 118 -28 236 -116 275 -52 23 -136 31 -196 19z m24
-1172 c-26 -46 -159 -188 -221 -238 -85 -68 -125 -91 -202 -114 -70 -20 -110
-20 -133 1 -35 32 -15 88 54 148 60 52 242 138 378 179 131 40 134 40 124 24z"/>
<path d="M6881 2479 c-301 -223 -367 -268 -385 -262 -11 4 -47 8 -80 8 -45 0
-61 -4 -70 -17 -31 -49 51 -74 128 -39 l45 19 86 -32 86 -32 -106 -135 c-116
-147 -135 -164 -196 -182 -36 -11 -23 -12 114 -12 85 0 153 3 150 8 -2 4 -10
7 -17 7 -18 0 -46 33 -46 55 0 10 38 69 84 130 l85 113 59 10 c60 11 154 52
168 73 4 6 3 10 -2 7 -57 -27 -89 -38 -132 -44 -29 -3 -52 -4 -52 0 0 5 311
407 443 574 5 7 8 14 6 16 -2 3 -168 -117 -368 -265z m-9 -125 l-147 -186 -55
6 c-62 6 -134 25 -127 32 13 13 463 333 469 333 4 1 -59 -83 -140 -185z"/>
<path d="M4926 2723 c-16 -8 -81 -35 -144 -59 -63 -24 -117 -46 -120 -49 -3
-3 -1 -10 5 -16 7 -7 41 4 112 35 55 25 101 43 101 40 0 -8 -618 -820 -634
-833 -8 -7 -36 -21 -63 -31 l-48 -19 165 0 165 0 -41 18 c-51 23 -60 44 -35
86 10 18 148 213 305 433 157 221 286 404 286 407 0 9 -25 4 -54 -12z"/>
<path d="M7530 2638 c-136 -184 -200 -273 -200 -280 0 -4 31 9 69 29 58 30 81
36 135 37 78 1 114 -20 135 -80 35 -102 -51 -320 -180 -455 -91 -95 -171 -119
-255 -79 -56 28 -77 61 -77 125 0 65 17 117 61 183 84 127 228 188 288 121 25
-28 25 -120 0 -168 -24 -45 -103 -129 -139 -148 -16 -8 -27 -17 -24 -19 10
-10 63 25 109 73 59 61 87 122 88 191 0 46 -4 58 -29 83 -59 58 -202 33 -298
-54 -109 -99 -126 -287 -32 -371 63 -58 180 -63 284 -12 67 33 173 133 202
191 60 117 73 258 33 341 -44 91 -144 119 -262 74 -28 -11 -53 -18 -54 -17 -3
3 140 192 177 236 23 25 18 25 154 -5 102 -22 148 -15 192 33 44 46 45 75 2
39 -36 -31 -83 -34 -153 -10 -33 12 -65 15 -103 11 -42 -4 -53 -3 -44 6 13 13
15 27 4 26 -5 0 -42 -46 -83 -101z"/>
<path d="M8837 2648 c-36 -51 -61 -95 -56 -96 5 -2 20 9 32 25 12 15 34 41 50
57 25 26 32 28 75 22 101 -14 219 -17 260 -8 41 10 43 9 30 -8 -33 -47 -567
-719 -602 -758 -43 -47 -83 -72 -116 -72 -11 0 -20 -3 -20 -7 0 -5 72 -8 160
-8 88 0 160 1 160 2 0 2 -15 9 -34 17 -19 8 -37 24 -41 36 -9 27 13 59 357
534 136 187 245 342 243 344 -1 2 -20 -6 -41 -17 -48 -26 -95 -26 -176 -1 -79
25 -121 25 -175 0 -46 -20 -49 -19 -33 11 6 10 7 19 2 19 -5 0 -38 -42 -75
-92z"/>
<path d="M5360 2714 c-101 -27 -206 -108 -244 -188 -42 -90 -38 -202 11 -250
38 -38 106 -36 160 3 69 50 122 142 128 224 l4 52 -9 -43 c-30 -138 -125 -252
-210 -252 -47 0 -68 16 -80 59 -39 144 155 391 306 391 84 0 114 -32 114 -118
-2 -179 -170 -381 -536 -642 l-110 -79 -45 10 c-66 16 -139 6 -161 -21 -23
-28 -23 -35 2 -60 28 -28 78 -25 142 9 l55 30 79 -31 c107 -42 221 -50 281
-20 38 20 123 105 123 123 0 15 -15 10 -27 -10 -6 -10 -35 -30 -64 -45 -45
-22 -66 -26 -133 -25 -45 0 -112 8 -151 17 l-70 17 90 54 c191 115 377 253
454 337 78 85 105 151 109 260 5 115 -16 165 -81 195 -50 22 -64 22 -137 3z"/>
<path d="M6065 2706 c-69 -33 -145 -117 -145 -161 0 -14 8 -6 26 25 33 59 61
88 104 110 75 38 155 34 195 -10 25 -28 30 -90 10 -149 -19 -58 -90 -142 -136
-161 -27 -11 -35 -11 -61 5 -68 40 -164 10 -121 -37 14 -16 29 -19 82 -17 73
3 73 2 85 -86 20 -145 -81 -338 -209 -400 -112 -55 -239 -39 -285 37 -77 126
78 368 235 368 47 0 71 -14 90 -50 42 -82 -15 -202 -119 -245 -21 -9 -36 -18
-33 -21 8 -8 70 21 104 50 64 54 92 161 58 226 -46 88 -205 75 -309 -26 -58
-56 -71 -88 -71 -180 0 -71 3 -85 27 -121 38 -57 95 -83 184 -83 164 0 321 89
374 212 32 75 26 202 -13 277 -15 30 -26 55 -25 56 2 1 25 10 52 20 135 50
201 185 143 296 -43 83 -145 111 -242 65z"/>
<path d="M9697 2716 c-110 -30 -190 -123 -190 -218 1 -30 10 -76 22 -106 11
-29 21 -54 21 -56 0 -2 -37 -15 -82 -29 -184 -58 -287 -165 -288 -300 0 -92
41 -165 115 -205 50 -27 168 -22 236 10 66 30 129 89 161 150 34 66 32 190 -6
278 -15 36 -28 71 -29 78 -1 8 20 21 53 31 121 39 189 94 210 171 18 68 -9
149 -63 184 -34 23 -104 28 -160 12z m132 -20 c33 -18 51 -54 51 -107 0 -84
-60 -166 -155 -211 -33 -15 -67 -28 -76 -28 -27 0 -63 95 -63 167 -1 52 3 68
29 105 52 74 148 107 214 74z m-236 -453 c66 -174 63 -259 -15 -348 -77 -87
-198 -120 -268 -72 -61 41 -75 70 -75 155 1 92 22 141 91 208 45 43 190 124
224 124 12 0 25 -20 43 -67z"/>
<path d="M8367 2696 c-96 -40 -166 -87 -243 -163 -141 -140 -228 -279 -265
-421 -23 -92 -24 -132 -3 -203 74 -247 454 -131 539 165 21 73 16 170 -12 218
-44 78 -166 99 -272 46 -28 -13 -51 -23 -51 -20 0 16 127 178 190 242 86 88
178 140 244 140 47 0 58 -6 75 -37 24 -47 1 -153 -46 -205 -9 -10 -13 -21 -9
-25 19 -20 86 119 86 178 0 37 -24 85 -49 99 -34 18 -122 11 -184 -14z m-65
-357 c61 -32 63 -156 4 -272 -45 -91 -128 -193 -190 -234 -39 -27 -58 -33
-100 -33 -45 0 -56 4 -82 31 -28 29 -29 35 -29 117 0 75 5 97 32 160 17 40 46
93 65 117 79 104 219 156 300 114z"/>
<path d="M10395 2676 c-297 -150 -506 -431 -508 -681 -1 -70 3 -87 27 -132 38
-69 75 -87 168 -81 136 10 272 104 409 281 85 110 130 189 163 287 35 105 42
193 23 261 -23 78 -52 102 -130 107 -57 3 -69 0 -152 -42z m200 18 c47 -18 57
-112 24 -220 -51 -167 -275 -497 -411 -605 -66 -52 -105 -69 -161 -69 -122 0
-149 139 -63 325 94 201 334 490 456 548 53 25 120 34 155 21z"/>
<path d="M11109 2701 c-158 -62 -272 -214 -273 -365 -1 -92 28 -149 94 -184
56 -29 112 -26 193 11 31 14 57 23 57 21 0 -16 -131 -185 -194 -249 -78 -80
-173 -135 -234 -135 -84 0 -123 60 -96 149 7 26 23 56 34 66 11 10 20 25 20
33 0 24 -36 -13 -60 -62 -30 -64 -27 -128 9 -168 28 -32 33 -33 103 -33 61 0
84 5 141 32 89 42 170 106 253 199 92 102 129 155 175 249 96 200 90 371 -17
432 -49 28 -139 30 -205 4z m194 -18 c25 -23 47 -74 47 -111 0 -82 -66 -242
-130 -315 -97 -110 -267 -142 -311 -59 -19 34 -16 131 6 189 42 113 184 280
261 309 47 17 99 12 127 -13z"/>
<path d="M8803 1376 c-129 -42 -187 -136 -135 -221 21 -33 94 -77 158 -94 38
-10 42 -14 48 -52 4 -26 17 -52 36 -70 18 -18 25 -31 17 -33 -215 -64 -264
-86 -360 -157 -71 -53 -133 -142 -144 -207 -26 -159 20 -275 131 -335 35 -19
56 -22 151 -21 95 0 119 4 178 27 212 83 335 270 297 452 -30 144 -154 183
-326 101 -136 -64 -214 -173 -214 -297 0 -58 4 -72 26 -98 87 -104 323 58 348
239 7 53 -3 33 -29 -54 -21 -72 -88 -144 -167 -181 -101 -47 -154 -24 -151 64
5 160 198 351 354 351 47 0 63 -5 87 -25 62 -52 62 -159 0 -285 -45 -92 -182
-229 -258 -257 -116 -43 -241 -38 -307 13 -147 112 -56 394 178 550 107 71
217 114 292 114 65 0 99 11 77 25 -7 4 -39 4 -72 1 -77 -9 -98 6 -98 71 l0 43
83 0 c155 0 351 45 452 104 52 31 112 97 121 132 9 34 -4 54 -47 77 -41 22
-152 18 -264 -9 l-70 -17 -75 28 c-91 33 -248 44 -317 21z m232 -26 c39 -6 85
-15 102 -21 l33 -10 -81 -41 c-89 -44 -177 -123 -199 -178 -7 -19 -14 -36 -15
-38 -1 -1 -32 7 -68 18 -161 50 -194 171 -65 234 81 40 180 52 293 36z m510
-23 c34 -29 28 -60 -22 -111 -48 -49 -101 -79 -195 -111 -120 -39 -334 -67
-382 -49 -36 14 90 127 227 204 l58 33 61 -27 c73 -31 91 -27 24 6 -41 20 -59
37 -38 39 4 0 39 9 77 19 99 27 157 26 190 -3z"/>
<path d="M11113 1361 c-29 -11 -62 -26 -73 -34 -19 -13 -25 -13 -67 10 -125
70 -369 18 -507 -108 -141 -129 -168 -342 -56 -443 21 -19 55 -38 74 -42 20
-3 36 -10 36 -16 0 -25 -198 -295 -257 -351 l-30 -28 -77 21 c-86 24 -208 28
-275 10 -116 -31 -142 -136 -44 -177 76 -31 249 -3 380 63 l71 36 99 -44 c157
-71 194 -81 287 -76 99 6 168 32 272 99 82 54 96 76 22 34 -124 -69 -336 -87
-508 -42 -52 14 -107 30 -121 35 l-26 10 73 75 c42 43 110 131 159 206 85 130
86 131 124 131 57 0 185 36 265 74 200 96 352 286 363 454 4 58 2 71 -17 95
-18 23 -29 27 -68 27 -26 -1 -70 -9 -99 -19z m149 -8 c67 -60 -58 -297 -234
-442 -80 -66 -223 -137 -313 -156 -38 -8 -71 -12 -73 -10 -2 2 25 52 60 111
l63 107 55 12 c30 6 74 21 96 33 54 28 122 105 130 148 6 35 2 99 -9 124 -5
10 5 22 29 39 78 50 162 65 196 34z m-288 -30 c15 -8 24 -18 20 -22 -5 -4 -34
-26 -65 -49 -70 -53 -141 -128 -198 -209 -40 -57 -45 -61 -70 -53 -39 11 -72
29 -98 53 -13 11 -23 16 -23 9 0 -16 46 -49 95 -67 l44 -17 -57 -88 c-95 -145
-83 -134 -127 -126 -81 16 -145 118 -131 209 16 99 116 233 218 295 136 81
306 110 392 65z m63 -96 c7 -48 -19 -117 -59 -158 -37 -36 -110 -75 -163 -85
-34 -6 -37 -5 -32 11 14 35 110 165 167 226 65 69 76 70 87 6z m-928 -863
c110 -27 112 -30 50 -74 -76 -55 -170 -83 -258 -78 -79 4 -111 24 -111 68 0
81 161 123 319 84z"/>
<path d="M1100 978 c-56 -27 -273 -242 -357 -354 -65 -85 -156 -174 -179 -174
-38 0 0 66 124 218 l34 42 -25 0 c-15 0 -32 -9 -41 -22 -12 -17 -16 -18 -16
-6 0 52 -79 41 -159 -22 -67 -53 -103 -115 -99 -172 3 -40 5 -43 35 -46 23 -2
40 5 67 28 l36 32 0 -31 c0 -31 9 -37 50 -31 8 1 38 24 65 50 l50 49 0 -47 0
-47 38 -3 c35 -3 43 2 107 64 39 37 70 62 70 56 0 -7 9 -12 21 -12 17 0 20 -4
15 -24 -14 -56 34 -104 90 -90 13 3 46 26 72 49 l48 44 -4 -30 c-9 -60 46 -78
104 -34 l33 25 3 -23 c2 -16 11 -23 30 -25 22 -3 39 8 82 48 47 44 53 47 48
25 -7 -41 22 -75 66 -75 48 1 67 12 149 90 99 95 158 147 148 130 -5 -8 -55
-73 -110 -145 -201 -258 -243 -332 -199 -349 24 -9 76 27 140 97 66 73 99 127
130 211 18 51 26 62 51 68 29 8 76 48 55 48 -6 0 -12 -5 -14 -10 -2 -6 -21
-17 -42 -24 -36 -13 -41 -19 -62 -79 -26 -79 -90 -171 -172 -250 -62 -59 -82
-69 -82 -41 0 21 7 31 290 394 135 173 258 332 274 353 l28 37 -23 0 c-18 -1
-45 -28 -114 -117 -49 -64 -126 -148 -169 -187 -44 -39 -96 -88 -115 -110 -61
-66 -120 -106 -157 -106 -20 0 -34 5 -35 13 -6 62 25 98 101 121 98 29 156 92
116 125 -38 32 -130 -23 -238 -141 -84 -92 -131 -128 -145 -114 -4 4 -1 19 8
34 13 24 317 418 357 465 14 16 13 17 -10 17 -21 0 -45 -26 -139 -150 -82
-108 -115 -145 -117 -131 -5 32 -38 35 -95 8 -38 -17 -84 -56 -164 -136 -102
-104 -113 -112 -144 -109 -50 5 -52 43 -5 113 40 60 110 132 139 141 28 9 47
-14 25 -30 -21 -16 -24 -36 -4 -36 19 0 38 26 34 46 -11 59 -102 31 -199 -63
-36 -35 -71 -63 -77 -63 -25 0 -22 23 8 70 18 28 30 59 28 72 l-3 23 -22 -24
c-12 -13 -28 -47 -35 -75 -10 -40 -26 -64 -74 -113 -44 -45 -69 -63 -87 -63
-37 0 -41 15 -18 63 39 80 116 163 208 222 175 114 267 205 250 249 -8 21 -23
20 -77 -6z m70 -8 c0 -39 -124 -150 -274 -246 -29 -18 -29 -18 -18 2 6 12 55
68 109 124 124 131 183 169 183 120z m-544 -275 c9 -23 -44 -110 -112 -179
-60 -62 -94 -80 -109 -56 -18 28 86 174 157 223 47 31 56 33 64 12z m772 -9
c5 -25 -58 -113 -128 -180 -60 -57 -100 -72 -100 -38 0 27 70 130 121 178 69
65 100 77 107 40z"/>
<path d="M2530 979 c-57 -34 -95 -75 -227 -244 -69 -88 -141 -175 -162 -193
-42 -38 -131 -95 -131 -84 0 4 43 62 95 130 85 110 92 122 70 122 -13 0 -30
-9 -38 -20 l-14 -21 -6 21 c-3 11 -12 23 -21 26 -26 10 -100 -23 -151 -68 -59
-52 -87 -106 -83 -161 3 -38 6 -42 32 -45 18 -2 40 4 59 18 l29 22 -21 -28
c-13 -18 -47 -40 -89 -57 -80 -33 -168 -91 -196 -130 -45 -61 34 -83 119 -32
41 24 175 159 175 176 0 5 19 18 43 30 23 12 57 33 76 46 30 23 32 24 22 5 -6
-12 -16 -24 -21 -27 -18 -11 -11 -25 13 -25 15 0 34 15 58 48 107 142 249 258
249 202 0 -5 -34 -45 -75 -89 -41 -44 -77 -91 -81 -106 -15 -59 50 -74 112
-24 l39 31 5 -29 c4 -22 11 -29 35 -31 26 -2 40 8 105 75 l75 77 -76 -72 c-42
-40 -84 -72 -93 -72 -33 0 -14 41 69 149 78 100 84 111 62 111 -18 0 -38 -18
-81 -75 -100 -130 -216 -222 -216 -171 0 8 19 38 43 67 84 104 97 123 97 145
0 59 -52 50 -132 -23 -43 -40 -48 -43 -29 -16 12 18 36 46 52 63 17 16 28 30
24 30 -11 0 145 198 181 230 37 32 64 39 64 16 0 -34 -92 -129 -215 -224 l-30
-23 33 18 c47 25 190 159 208 195 17 32 13 58 -8 58 -7 0 -29 -10 -48 -21z
m-440 -338 c-31 -63 -159 -193 -184 -189 -33 5 -22 43 32 123 58 84 137 144
160 122 12 -12 11 -20 -8 -56z m-224 -305 c-88 -100 -179 -151 -194 -108 -7
23 89 105 168 144 41 20 77 34 79 32 2 -2 -22 -32 -53 -68z"/>
<path d="M3145 983 c-50 -26 -121 -101 -227 -238 -56 -71 -121 -151 -147 -177
-25 -27 -42 -48 -37 -48 5 0 -3 -15 -18 -34 -31 -41 -32 -46 -7 -46 18 0 165
162 156 172 -10 9 70 94 132 140 133 99 222 199 209 234 -7 18 -23 17 -61 -3z"/>
<path d="M3422 983 c-44 -22 -178 -164 -294 -314 -102 -132 -187 -219 -213
-219 -18 0 -19 10 -4 61 9 29 9 42 0 53 -13 16 4 26 44 26 36 0 95 56 95 90 0
16 -7 30 -16 34 -22 9 -23 8 -17 -14 3 -11 -2 -31 -11 -45 -19 -28 -85 -65
-117 -65 -17 0 -19 -3 -10 -14 10 -11 9 -21 -4 -46 -9 -17 -15 -43 -13 -58 2
-23 9 -28 37 -30 28 -3 41 3 77 39 l44 43 0 -37 c0 -45 22 -60 62 -44 16 7 81
64 147 129 119 116 155 145 165 130 10 -17 -49 -100 -172 -244 -14 -16 -13
-18 9 -18 18 0 47 27 119 111 117 138 180 184 180 134 0 -7 -40 -65 -90 -127
-80 -100 -87 -113 -68 -116 13 -2 27 4 35 14 72 98 228 254 254 254 25 0 1
-39 -66 -110 -41 -43 -77 -90 -81 -104 -8 -32 10 -56 40 -56 30 0 63 27 192
158 61 61 116 112 123 112 28 0 4 -47 -79 -152 -81 -102 -87 -113 -67 -117 16
-2 30 7 52 35 77 99 219 234 247 234 22 0 2 -37 -57 -101 -80 -87 -100 -121
-85 -149 19 -36 65 -26 120 26 l50 47 0 -35 c0 -83 77 -77 176 14 24 22 50 38
59 36 14 -3 -19 -48 -233 -316 l-34 -42 29 0 c24 1 43 20 138 145 92 121 111
141 117 125 10 -27 72 -27 116 0 49 30 121 106 138 145 29 70 10 124 -38 110
-13 -4 -38 -21 -57 -39 -33 -30 -34 -20 -3 17 14 15 13 17 -5 17 -10 0 -30
-15 -43 -32 -48 -65 -103 -118 -122 -118 -11 0 -18 3 -16 8 41 79 47 126 17
145 -26 17 -117 -32 -174 -94 -137 -148 -205 -199 -205 -153 0 8 30 49 66 91
36 41 70 86 75 100 10 28 -4 63 -25 63 -16 0 -81 -42 -119 -79 l-29 -26 18 37
c14 30 15 40 4 53 -7 8 -19 15 -28 15 -8 0 -77 -61 -152 -135 -90 -88 -145
-135 -159 -135 -33 0 -25 22 32 86 82 91 97 114 97 146 0 55 -37 46 -119 -28
l-38 -34 10 40 c21 77 -24 78 -106 1 -32 -29 -46 -38 -38 -23 17 32 10 76 -12
80 -11 2 -65 -43 -157 -132 -104 -101 -146 -136 -165 -136 -34 0 -32 18 12 81
59 87 68 97 134 146 110 80 269 243 269 275 0 6 -13 -7 -28 -28 -51 -70 -132
-153 -200 -203 -36 -28 -68 -48 -70 -46 -7 7 208 263 247 295 41 33 40 36 -7
13z m878 -309 c0 -13 -5 -24 -11 -24 -12 0 -42 -67 -35 -79 8 -13 -98 -109
-127 -116 -59 -15 -61 20 -8 101 39 60 114 138 141 146 25 8 40 -3 40 -28z
m244 19 c10 -25 -50 -116 -121 -184 -57 -55 -94 -72 -108 -49 -21 33 166 250
216 250 4 0 10 -7 13 -17z"/>
<path d="M11630 819 c-83 -110 -116 -147 -119 -133 -5 26 -21 34 -51 27 -50
-11 -107 -54 -210 -157 -94 -95 -130 -122 -130 -98 0 13 49 84 118 172 57 72
61 80 40 80 -16 -1 -34 -16 -58 -48 -59 -78 -192 -212 -211 -212 -32 0 -21 25
46 110 50 63 65 89 65 115 0 39 -19 49 -51 28 -13 -9 -78 -69 -145 -135 -111
-109 -154 -138 -154 -105 0 17 41 76 112 164 32 39 58 74 58 77 0 14 -36 4
-57 -16 l-23 -21 0 21 c0 79 -193 -27 -241 -133 -45 -99 6 -152 88 -89 31 24
33 24 33 5 0 -28 28 -41 59 -29 15 5 85 67 157 139 72 71 134 129 137 129 22
0 0 -47 -46 -102 -30 -35 -59 -73 -65 -85 -31 -57 2 -107 49 -76 13 9 35 27
49 39 l26 24 -4 -35 c-4 -35 1 -40 38 -35 8 1 36 23 63 48 l47 47 -6 -32 c-9
-45 24 -77 63 -62 16 6 40 22 54 35 l26 25 -4 -24 c-4 -18 1 -28 14 -35 22
-12 41 -4 102 46 l41 34 0 -25 c0 -62 79 -77 146 -28 21 15 83 74 138 130 94
98 126 117 126 75 0 -9 -27 -45 -60 -80 -66 -72 -87 -127 -56 -150 28 -20 72
2 145 74 36 35 57 59 46 51 -11 -7 -25 -18 -30 -24 -76 -79 -145 -117 -145
-81 0 8 29 49 65 91 72 84 81 114 40 141 -24 16 -25 18 -9 41 22 34 3 54 -20
22 -9 -13 -16 -31 -16 -39 0 -23 -240 -257 -272 -265 -39 -10 -63 -3 -66 20
-3 22 31 83 51 90 129 45 187 82 187 119 0 30 -38 39 -89 21 -35 -14 -72 -44
-161 -136 -106 -110 -150 -140 -150 -105 0 11 198 273 373 494 7 9 3 12 -14
12 -19 0 -48 -31 -139 -151z m-782 -135 c7 -47 -152 -234 -199 -234 -19 0 -21
4 -15 32 13 66 164 237 200 225 6 -2 12 -13 14 -23z m652 -3 c0 -46 -166 -231
-207 -231 -34 0 -29 29 16 96 45 68 103 126 145 148 33 17 46 13 46 -13z"/>
<path d="M5565 775 c-41 -53 -55 -65 -80 -66 -28 -1 -28 -1 -6 -8 23 -6 21
-10 -45 -69 -38 -34 -64 -62 -59 -62 5 0 27 17 49 38 41 38 34 24 -17 -37 -56
-66 -61 -131 -10 -131 21 0 57 29 164 136 121 119 159 147 159 114 0 -4 -25
-39 -56 -77 -31 -37 -63 -81 -71 -96 -38 -75 18 -103 85 -42 l40 36 -1 -33
c-2 -28 2 -34 22 -36 19 -3 50 22 156 127 117 117 165 152 165 121 0 -5 -29
-42 -63 -82 -76 -88 -91 -112 -83 -144 5 -18 13 -24 34 -24 39 0 88 37 161
122 58 69 65 74 86 64 l24 -11 -22 -25 c-12 -14 7 2 43 36 123 115 149 103 51
-24 -71 -94 -84 -117 -76 -142 12 -39 56 -25 119 36 50 49 56 52 41 25 -22
-44 -17 -75 15 -78 26 -3 50 15 105 78 16 19 5 10 -25 -19 -55 -51 -90 -66
-90 -38 0 14 28 54 121 172 27 34 49 65 49 68 0 3 -9 6 -19 6 -12 0 -39 -25
-69 -62 -73 -92 -186 -198 -211 -198 -20 0 -21 2 -7 28 8 15 39 58 70 95 63
77 76 111 53 134 -18 18 -40 8 -101 -44 -69 -58 -100 -37 -51 35 14 20 25 43
25 51 0 27 -50 -31 -60 -70 -13 -49 -184 -229 -217 -229 -37 0 -27 26 38 96
84 90 107 151 62 168 -22 9 -34 0 -172 -137 -71 -70 -134 -127 -140 -127 -27
0 -5 42 74 144 47 60 85 111 85 113 0 2 -8 3 -18 3 -12 0 -53 -41 -106 -105
-96 -113 -149 -160 -172 -151 -19 7 -7 33 50 101 80 95 93 128 61 155 -22 18
-52 -4 -186 -141 -64 -66 -124 -119 -133 -119 -27 0 -18 35 21 87 120 159 124
163 162 164 30 2 32 3 9 6 -31 5 -35 15 -15 31 7 6 28 32 46 57 32 44 32 45 9
45 -16 -1 -37 -19 -73 -65z"/>
<path d="M9632 775 c-40 -49 -59 -65 -80 -66 -26 -2 -27 -2 -2 -6 23 -5 20 -9
-45 -70 -39 -36 -53 -51 -32 -34 21 17 40 31 43 31 2 0 -14 -23 -36 -51 -61
-77 -68 -131 -18 -137 21 -3 39 7 77 43 l50 47 3 -39 c6 -76 81 -77 170 -3
l48 41 0 -34 c0 -19 7 -40 15 -47 19 -16 76 -15 106 1 31 16 139 119 139 132
0 6 -31 -19 -68 -56 -67 -64 -101 -82 -139 -75 -26 5 -28 43 -4 81 15 25 33
36 78 49 72 22 121 51 132 81 20 53 -19 68 -92 34 -36 -17 -81 -54 -151 -125
-100 -102 -136 -126 -178 -120 -31 4 -35 39 -9 81 15 25 32 36 78 49 83 24
127 56 131 95 4 45 -24 51 -92 20 -41 -19 -82 -54 -162 -136 -99 -103 -144
-133 -144 -97 0 15 66 108 132 189 33 39 46 47 76 49 l37 1 -33 4 -33 4 52 65
c48 60 49 64 27 64 -18 0 -38 -17 -76 -65z"/>
<path d="M5398 769 c-40 -55 -247 -264 -253 -257 -12 11 5 47 26 53 19 6 26
30 10 39 -19 12 -43 -22 -48 -67 -5 -43 -3 -50 23 -72 31 -27 89 -34 124 -15
33 17 58 74 76 165 15 80 21 95 56 131 34 36 40 54 17 54 -4 0 -18 -14 -31
-31z m-52 -116 c-38 -108 -102 -193 -145 -193 -9 0 -26 7 -37 14 -18 14 -14
20 85 120 58 58 106 104 108 102 2 -1 -3 -21 -11 -43z"/>
<path d="M9471 768 c-14 -17 -75 -82 -136 -145 -78 -81 -111 -109 -113 -97 -2
9 8 28 23 41 16 16 23 29 17 35 -25 25 -66 -37 -60 -93 4 -34 54 -69 98 -69
71 0 102 43 131 183 15 77 23 95 54 127 19 20 35 39 35 43 0 17 -24 5 -49 -25z
m-71 -161 c-44 -107 -112 -165 -155 -133 -18 13 -14 20 80 121 55 59 101 103
103 97 2 -6 -11 -44 -28 -85z"/>
<path d="M5016 759 c-9 -13 -16 -31 -16 -40 0 -22 -205 -218 -260 -248 l-44
-24 21 29 c12 16 55 74 97 129 54 73 71 101 60 103 -9 2 -27 -6 -40 -19 -24
-22 -24 -22 -24 -1 0 90 -217 -45 -251 -157 -26 -87 28 -119 98 -58 45 39 38
29 -99 -145 -60 -75 -108 -139 -108 -142 0 -3 9 -6 19 -6 13 0 52 42 117 125
84 109 105 130 158 157 39 21 98 69 166 136 58 57 110 100 117 98 26 -10 12
-39 -47 -102 -66 -72 -87 -127 -56 -150 28 -20 72 2 145 74 l66 64 -78 -66
c-74 -63 -117 -82 -117 -52 0 8 29 49 65 91 72 84 81 114 40 141 -24 16 -25
18 -9 41 22 34 3 54 -20 22z m-216 -78 c0 -48 -158 -231 -199 -231 -32 0 -26
37 15 100 46 72 102 129 139 145 34 15 45 12 45 -14z"/>
<path d="M6821 703 c-19 -10 -90 -70 -157 -135 -67 -65 -127 -118 -133 -118
-27 0 -6 42 67 136 99 127 97 124 74 124 -20 0 -141 -126 -146 -152 -2 -7 -10
-29 -18 -47 -24 -52 -3 -90 36 -69 12 6 76 64 142 129 68 66 134 121 149 125
45 11 50 -8 19 -76 -32 -71 -134 -173 -169 -168 -27 4 -26 22 3 26 32 5 30 42
-3 42 -28 0 -49 -31 -40 -60 12 -36 60 -26 114 25 26 25 50 45 53 45 2 0 3
-14 0 -30 -5 -38 12 -60 50 -60 29 0 59 25 230 194 60 59 108 84 108 56 0 -5
-27 -40 -61 -77 -33 -37 -67 -81 -75 -96 -39 -73 16 -102 83 -45 l38 33 -36
-44 c-29 -37 -55 -53 -151 -96 -64 -29 -134 -66 -156 -83 -67 -54 -82 -125
-30 -150 58 -28 157 44 290 211 53 66 83 94 122 114 67 34 85 48 181 142 l80
79 82 4 c54 2 79 0 73 -7 -5 -6 -54 -35 -111 -65 -70 -37 -108 -65 -123 -87
-11 -18 -33 -38 -48 -44 -28 -11 -57 -39 -42 -39 5 0 40 16 78 35 88 45 99 45
91 1 -6 -29 -4 -35 14 -41 11 -3 33 1 48 9 32 17 152 136 137 136 -5 0 -39
-29 -74 -65 -35 -36 -68 -65 -73 -65 -4 0 -5 15 -2 34 9 44 -12 52 -81 32 -44
-14 -47 -14 -29 0 11 9 50 31 87 50 37 19 89 55 115 80 27 25 57 50 68 55 14
6 9 7 -16 3 -21 -3 -62 -1 -92 6 -72 15 -78 11 -197 -109 -58 -59 -117 -108
-150 -126 l-55 -29 29 40 c30 39 136 174 164 207 14 15 13 17 -9 17 -18 0 -39
-19 -84 -76 -67 -85 -169 -184 -191 -184 -27 0 -14 26 55 109 73 88 88 123 64
147 -8 8 -17 14 -19 14 -20 0 -71 -41 -139 -110 -92 -94 -170 -160 -191 -160
-32 0 -4 104 45 169 30 40 100 93 112 85 16 -10 9 -24 -16 -34 -28 -11 -33
-28 -10 -37 19 -7 55 24 55 47 0 10 -6 23 -14 29 -18 15 -47 2 -93 -42 l-33
-31 0 32 c0 21 -6 35 -19 42 -25 13 -30 13 -70 -7z m272 -315 c-71 -94 -183
-220 -207 -233 -17 -9 -44 -15 -61 -13 -26 2 -30 8 -33 35 -5 48 50 102 151
150 169 81 163 78 150 61z"/>
<path d="M2723 662 c-21 -26 -70 -90 -110 -142 -65 -85 -78 -97 -129 -118 -83
-34 -190 -106 -208 -141 -14 -27 -14 -31 0 -46 20 -20 62 -13 120 21 40 23
174 158 174 175 0 5 26 22 58 38 31 16 68 39 82 51 l25 22 -29 -17 c-83 -50
-96 -56 -96 -50 0 4 39 57 87 118 47 62 91 118 96 125 7 9 4 12 -12 12 -13 0
-35 -18 -58 -48z m-259 -328 c-61 -70 -138 -127 -164 -122 -28 6 -22 42 13 76
33 32 197 125 206 117 2 -3 -23 -35 -55 -71z"/>
</g>
</svg>
